<svg width="126" height="192" viewBox="0 0 126 192" fill="none" xmlns="http://www.w3.org/2000/svg">
<g filter="url(#filter0_f_12_2118)">
<ellipse cx="61.2823" cy="166.293" rx="47.6874" ry="15.5714" transform="rotate(1.78984 61.2823 166.293)" fill="#5B7628"/>
</g>
<g filter="url(#filter1_g_12_2118)">
<g filter="url(#filter2_g_12_2118)">
<path d="M105.312 31.22C104.875 45.2193 87.8606 56.0475 62.4195 55.2525C36.9784 54.4574 18.9744 42.5351 19.4119 28.5357C19.8494 14.5364 38.6479 1.03169 64.089 1.82669C89.5301 2.6217 105.75 17.2207 105.312 31.22Z" fill="url(#paint0_linear_12_2118)"/>
</g>
<g filter="url(#filter3_g_12_2118)">
<path d="M123.262 52.4352C122.823 66.4651 99.358 77.1164 64.0662 76.0136C28.7744 74.9108 3.6629 62.7415 4.10132 48.7116C4.53974 34.6816 28.1278 11.7132 63.4196 12.8161C98.7113 13.9189 123.7 38.4053 123.262 52.4352Z" fill="url(#paint1_linear_12_2118)"/>
</g>
<g filter="url(#filter4_g_12_2118)">
<path d="M63.0122 160.077C62.7148 169.594 56.6818 174.612 45.6979 174.269C34.714 173.926 28.669 168.53 28.9664 159.013C31.379 148.918 35.7124 141.975 46.6963 142.318C57.6803 142.662 61.963 151.709 63.0122 160.077Z" fill="#775012"/>
</g>
<g filter="url(#filter5_d_12_2118)">
<path d="M61.787 148.946C61.5091 157.839 55.7577 162.525 45.2807 162.197C34.8038 161.87 29.0346 156.824 29.3125 147.931C31.6076 138.499 35.7367 132.014 46.2137 132.342C56.6907 132.669 60.7811 141.126 61.787 148.946Z" fill="#583A0B"/>
</g>
<g filter="url(#filter6_g_12_2118)">
<path d="M99.2019 159.635C98.9045 169.152 92.8715 174.17 81.8876 173.827C70.9037 173.484 64.8587 168.088 65.1561 158.571C67.5687 148.476 71.9021 141.533 82.886 141.876C93.87 142.22 98.1527 151.266 99.2019 159.635Z" fill="#775012"/>
</g>
<g filter="url(#filter7_d_12_2118)">
<path d="M96.913 148.995C96.6351 157.888 90.8837 162.574 80.4067 162.246C69.9297 161.919 64.1606 156.873 64.4385 147.98C66.7336 138.548 70.8627 132.063 81.3397 132.391C91.8166 132.718 95.9071 141.175 96.913 148.995Z" fill="#583A0B"/>
</g>
<g filter="url(#filter8_g_12_2118)">
<path d="M64.5821 113.517C87.4348 114.231 105.642 125.011 105.248 137.594C105.115 141.873 102.846 145.807 99.0135 149.111C97.972 157.286 90.6538 161.042 81.5146 162.092C75.2707 162.809 69.5686 162.103 65.667 159.121C64.8367 159.122 64.0001 159.112 63.1581 159.085C62.3067 159.059 61.4614 159.016 60.6236 158.962C56.5158 162.608 50.1946 163.177 43.3149 161.947C33.421 160.179 25.897 155.322 26.6844 145.512C23.8935 142.313 22.3744 138.74 22.4909 135.008C22.8841 122.425 41.7292 112.803 64.5821 113.517Z" fill="#068CB9"/>
</g>
<path d="M86.8017 98.7445L43.557 98.4418L41.3882 125.899L88.2094 129.198L86.8017 98.7445Z" fill="#FF7759"/>
<g filter="url(#filter9_f_12_2118)">
<path d="M95.2902 137.414C95.0594 144.801 83.7078 150.441 62.0694 149.764C40.431 149.088 23.0768 142.552 23.3076 135.165C23.5385 127.778 41.2669 122.338 62.9053 123.014C84.5437 123.69 95.5211 130.027 95.2902 137.414Z" fill="#037DA6"/>
</g>
<g filter="url(#filter10_g_12_2118)">
<path d="M29.3743 140.278C22.6393 138.579 18.7672 130.908 21.8444 118.711C24.9215 106.514 32.8759 98.004 39.6109 99.7032C46.3459 101.402 49.3111 112.667 46.234 124.864C43.1568 137.062 36.1093 141.977 29.3743 140.278Z" fill="#FF7759"/>
</g>
<g filter="url(#filter11_g_12_2118)">
<path d="M95.4428 141.818C102.271 140.543 106.614 133.129 104.305 120.764C101.995 108.398 94.5875 99.4081 87.7596 100.683C80.9316 101.959 77.2688 113.017 79.5784 125.382C81.888 137.748 88.6149 143.094 95.4428 141.818Z" fill="#FF7759"/>
</g>
<g filter="url(#filter12_g_12_2118)">
<path d="M41.4936 124.637C40.6045 115.251 34.8316 103.441 30.6319 103.31C34.9849 98.5355 40.2163 99.2767 46.1812 101.774C48.4623 104.445 49.1588 112.797 54.1928 114.445C58.0939 115.723 68.0141 117.766 79.1916 113.204L81.8425 104.044C89.8973 98.5184 98.314 99.0702 92.5913 103.834C87.4928 108.079 88.7845 121.606 90.0677 127.839C74.5239 130.22 42.3827 134.023 41.4936 124.637Z" fill="#068CB9"/>
</g>
<g filter="url(#filter13_g_12_2118)">
<path d="M66.178 26.4182C91.1214 28.6043 109.886 48.2639 108.671 70.6209C111.263 74.0897 112.576 77.9305 112.48 81.9506C112.137 96.4078 93.73 107.695 63.5463 106.91C33.3626 106.125 13.3858 94.5182 13.7287 80.061C13.8041 76.8878 14.8522 73.841 16.7614 71.0262C16.4825 68.6898 16.4403 66.2638 16.6557 63.7579C18.6196 40.9111 40.7916 24.1935 66.178 26.4182Z" fill="url(#paint2_radial_12_2118)"/>
</g>
<rect x="53.3354" y="62.5608" width="3.6911" height="4.28825" rx="1.84555" transform="rotate(-1.32768 53.3354 62.5608)" fill="#3B3B3B"/>
<rect x="69.5728" y="63.0681" width="3.6911" height="4.28825" rx="1.84555" transform="rotate(-1.32768 69.5728 63.0681)" fill="#3B3B3B"/>
<ellipse cx="63.8958" cy="68.5603" rx="3.40624" ry="1.57211" transform="rotate(1.78984 63.8958 68.5603)" fill="#3B3B3B"/>
<g filter="url(#filter14_g_12_2118)">
<ellipse cx="14.6583" cy="8.8769" rx="14.6583" ry="8.8769" transform="matrix(-0.635396 0.772186 0.772186 0.635396 28.4856 26.4048)" fill="#FFF1CD"/>
</g>
<g filter="url(#filter15_g_12_2118)">
<ellipse cx="101.876" cy="48.8798" rx="14.6583" ry="8.8769" transform="rotate(54.1303 101.876 48.8798)" fill="#FFF1CD"/>
</g>
<g filter="url(#filter16_g_12_2118)">
<circle cx="40.0457" cy="72.904" r="8.90864" transform="rotate(1.78984 40.0457 72.904)" fill="#FFCCD4" fill-opacity="0.55"/>
</g>
<g filter="url(#filter17_g_12_2118)">
<circle cx="87.1861" cy="74.3769" r="8.90864" transform="rotate(1.78984 87.1861 74.3769)" fill="#FFCCD4" fill-opacity="0.55"/>
</g>
<g filter="url(#filter18_g_12_2118)">
<path d="M55.5957 132.635C55.3788 139.577 50.6535 145.063 41.8362 144.788C33.0189 144.512 26.047 138.661 26.2639 131.718C26.4809 124.776 33.8046 119.371 42.6219 119.646C51.4392 119.922 55.8127 125.692 55.5957 132.635Z" fill="url(#paint3_linear_12_2118)"/>
</g>
<g filter="url(#filter19_g_12_2118)">
<path d="M71.8984 131.047C71.6815 137.99 76.055 143.76 84.8723 144.036C93.6896 144.311 101.013 138.906 101.23 131.964C101.447 125.021 94.4752 119.17 85.6579 118.894C76.8406 118.619 72.1154 124.105 71.8984 131.047Z" fill="url(#paint4_linear_12_2118)"/>
</g>
</g>
<path d="M45.3401 89.6432C43.2428 90.861 42.0926 93.512 42.1425 97.013C42.1923 100.514 43.4382 104.578 45.6059 108.311C47.7737 112.045 50.6858 115.141 53.7017 116.92C56.7175 118.699 59.59 119.014 61.6873 117.796L53.5137 103.72L45.3401 89.6432Z" fill="white"/>
<path d="M62.9244 87.7088C65.3165 88.1076 67.3287 90.1816 68.5183 93.4747C69.7079 96.7677 69.9774 101.01 69.2676 105.268C68.5577 109.527 66.9266 113.452 64.7332 116.181C62.5397 118.91 59.9636 120.219 57.5714 119.821L60.2479 103.765L62.9244 87.7088Z" fill="white"/>
<path d="M71.5118 140.747C80.786 128.004 70.4789 121.812 63.1739 120.028C62.7027 119.913 62.3083 120.363 62.4703 120.82C63.6538 124.16 66.4003 131.383 70.4414 140.633C70.633 141.071 71.2303 141.134 71.5118 140.747Z" stroke="#CD3333" stroke-width="4.42494"/>
<path d="M60.1024 144.128C44.9485 137.979 52.3983 126.392 58.8171 120.593C59.1912 120.255 59.7743 120.488 59.8218 120.99C60.1744 124.716 60.7489 132.845 60.9629 143.541C60.9719 143.986 60.515 144.296 60.1024 144.128Z" stroke="#CD3333" stroke-width="4.42494"/>
<circle cx="59.9005" cy="116.807" r="3.95084" transform="rotate(120.82 59.9005 116.807)" fill="#BCBCBC"/>
<defs>
<filter id="filter0_f_12_2118" x="4.17556" y="141.217" width="114.214" height="50.1523" filterUnits="userSpaceOnUse" color-interpolation-filters="sRGB">
<feFlood flood-opacity="0" result="BackgroundImageFix"/>
<feBlend mode="normal" in="SourceGraphic" in2="BackgroundImageFix" result="shape"/>
<feGaussianBlur stdDeviation="4.72008" result="effect1_foregroundBlur_12_2118"/>
</filter>
<filter id="filter1_g_12_2118" x="4.0957" y="1.79321" width="119.172" height="172.492" filterUnits="userSpaceOnUse" color-interpolation-filters="sRGB">
<feFlood flood-opacity="0" result="BackgroundImageFix"/>
<feBlend mode="normal" in="SourceGraphic" in2="BackgroundImageFix" result="shape"/>
<feTurbulence type="fractalNoise" baseFrequency="3.8165194988250732 3.8165194988250732" numOctaves="3" seed="4220" />
<feDisplacementMap in="shape" scale="0" xChannelSelector="R" yChannelSelector="G" result="displacedImage" width="100%" height="100%" />
<feMerge result="effect1_texture_12_2118">
<feMergeNode in="displacedImage"/>
</feMerge>
</filter>
<filter id="filter2_g_12_2118" x="17.6223" y="0.0114847" width="89.4802" height="57.0637" filterUnits="userSpaceOnUse" color-interpolation-filters="sRGB">
<feFlood flood-opacity="0" result="BackgroundImageFix"/>
<feBlend mode="normal" in="SourceGraphic" in2="BackgroundImageFix" result="shape"/>
<feTurbulence type="fractalNoise" baseFrequency="0.077888153493404388 0.077888153493404388" numOctaves="3" seed="6019" />
<feDisplacementMap in="shape" scale="3.5634562969207764" xChannelSelector="R" yChannelSelector="G" result="displacedImage" width="100%" height="100%" />
<feMerge result="effect1_texture_12_2118">
<feMergeNode in="displacedImage"/>
</feMerge>
</filter>
<filter id="filter3_g_12_2118" x="2.31397" y="10.9961" width="122.735" height="66.8777" filterUnits="userSpaceOnUse" color-interpolation-filters="sRGB">
<feFlood flood-opacity="0" result="BackgroundImageFix"/>
<feBlend mode="normal" in="SourceGraphic" in2="BackgroundImageFix" result="shape"/>
<feTurbulence type="fractalNoise" baseFrequency="0.077888153493404388 0.077888153493404388" numOctaves="3" seed="6019" />
<feDisplacementMap in="shape" scale="3.5634562969207764" xChannelSelector="R" yChannelSelector="G" result="displacedImage" width="100%" height="100%" />
<feMerge result="effect1_texture_12_2118">
<feMergeNode in="displacedImage"/>
</feMerge>
</filter>
<filter id="filter4_g_12_2118" x="27.1741" y="140.525" width="37.6199" height="35.5427" filterUnits="userSpaceOnUse" color-interpolation-filters="sRGB">
<feFlood flood-opacity="0" result="BackgroundImageFix"/>
<feBlend mode="normal" in="SourceGraphic" in2="BackgroundImageFix" result="shape"/>
<feTurbulence type="fractalNoise" baseFrequency="0.077888153493404388 0.077888153493404388" numOctaves="3" seed="6019" />
<feDisplacementMap in="shape" scale="3.5634562969207764" xChannelSelector="R" yChannelSelector="G" result="displacedImage" width="100%" height="100%" />
<feMerge result="effect1_texture_12_2118">
<feMergeNode in="displacedImage"/>
</feMerge>
</filter>
<filter id="filter5_d_12_2118" x="27.2068" y="132.33" width="36.6764" height="34.0758" filterUnits="userSpaceOnUse" color-interpolation-filters="sRGB">
<feFlood flood-opacity="0" result="BackgroundImageFix"/>
<feColorMatrix in="SourceAlpha" type="matrix" values="0 0 0 0 0 0 0 0 0 0 0 0 0 0 0 0 0 0 127 0" result="hardAlpha"/>
<feOffset dy="2.09615"/>
<feGaussianBlur stdDeviation="1.04808"/>
<feComposite in2="hardAlpha" operator="out"/>
<feColorMatrix type="matrix" values="0 0 0 0 0 0 0 0 0 0 0 0 0 0 0 0 0 0 0.25 0"/>
<feBlend mode="normal" in2="BackgroundImageFix" result="effect1_dropShadow_12_2118"/>
<feBlend mode="normal" in="SourceGraphic" in2="effect1_dropShadow_12_2118" result="shape"/>
</filter>
<filter id="filter6_g_12_2118" x="63.3638" y="140.083" width="37.6199" height="35.5427" filterUnits="userSpaceOnUse" color-interpolation-filters="sRGB">
<feFlood flood-opacity="0" result="BackgroundImageFix"/>
<feBlend mode="normal" in="SourceGraphic" in2="BackgroundImageFix" result="shape"/>
<feTurbulence type="fractalNoise" baseFrequency="0.077888153493404388 0.077888153493404388" numOctaves="3" seed="6019" />
<feDisplacementMap in="shape" scale="3.5634562969207764" xChannelSelector="R" yChannelSelector="G" result="displacedImage" width="100%" height="100%" />
<feMerge result="effect1_texture_12_2118">
<feMergeNode in="displacedImage"/>
</feMerge>
</filter>
<filter id="filter7_d_12_2118" x="62.3328" y="132.379" width="36.6764" height="34.0758" filterUnits="userSpaceOnUse" color-interpolation-filters="sRGB">
<feFlood flood-opacity="0" result="BackgroundImageFix"/>
<feColorMatrix in="SourceAlpha" type="matrix" values="0 0 0 0 0 0 0 0 0 0 0 0 0 0 0 0 0 0 127 0" result="hardAlpha"/>
<feOffset dy="2.09615"/>
<feGaussianBlur stdDeviation="1.04808"/>
<feComposite in2="hardAlpha" operator="out"/>
<feColorMatrix type="matrix" values="0 0 0 0 0 0 0 0 0 0 0 0 0 0 0 0 0 0 0.25 0"/>
<feBlend mode="normal" in2="BackgroundImageFix" result="effect1_dropShadow_12_2118"/>
<feBlend mode="normal" in="SourceGraphic" in2="effect1_dropShadow_12_2118" result="shape"/>
</filter>
<filter id="filter8_g_12_2118" x="20.7029" y="111.698" width="86.3335" height="52.6186" filterUnits="userSpaceOnUse" color-interpolation-filters="sRGB">
<feFlood flood-opacity="0" result="BackgroundImageFix"/>
<feBlend mode="normal" in="SourceGraphic" in2="BackgroundImageFix" result="shape"/>
<feTurbulence type="fractalNoise" baseFrequency="0.077888153493404388 0.077888153493404388" numOctaves="3" seed="6019" />
<feDisplacementMap in="shape" scale="3.5634562969207764" xChannelSelector="R" yChannelSelector="G" result="displacedImage" width="100%" height="100%" />
<feMerge result="effect1_texture_12_2118">
<feMergeNode in="displacedImage"/>
</feMerge>
</filter>
<filter id="filter9_f_12_2118" x="21.2093" y="120.861" width="76.1806" height="31.0544" filterUnits="userSpaceOnUse" color-interpolation-filters="sRGB">
<feFlood flood-opacity="0" result="BackgroundImageFix"/>
<feBlend mode="normal" in="SourceGraphic" in2="BackgroundImageFix" result="shape"/>
<feGaussianBlur stdDeviation="1.04808" result="effect1_foregroundBlur_12_2118"/>
</filter>
<filter id="filter10_g_12_2118" x="18.9915" y="97.7053" width="30.24" height="44.6804" filterUnits="userSpaceOnUse" color-interpolation-filters="sRGB">
<feFlood flood-opacity="0" result="BackgroundImageFix"/>
<feBlend mode="normal" in="SourceGraphic" in2="BackgroundImageFix" result="shape"/>
<feTurbulence type="fractalNoise" baseFrequency="0.077888160943984985 0.077888160943984985" numOctaves="3" seed="6019" />
<feDisplacementMap in="shape" scale="3.5634560585021973" xChannelSelector="R" yChannelSelector="G" result="displacedImage" width="100%" height="100%" />
<feMerge result="effect1_texture_12_2118">
<feMergeNode in="displacedImage"/>
</feMerge>
</filter>
<filter id="filter11_g_12_2118" x="77.105" y="98.7813" width="29.6064" height="45.0027" filterUnits="userSpaceOnUse" color-interpolation-filters="sRGB">
<feFlood flood-opacity="0" result="BackgroundImageFix"/>
<feBlend mode="normal" in="SourceGraphic" in2="BackgroundImageFix" result="shape"/>
<feTurbulence type="fractalNoise" baseFrequency="0.077888160943984985 0.077888160943984985" numOctaves="3" seed="6019" />
<feDisplacementMap in="shape" scale="3.5634560585021973" xChannelSelector="R" yChannelSelector="G" result="displacedImage" width="100%" height="100%" />
<feMerge result="effect1_texture_12_2118">
<feMergeNode in="displacedImage"/>
</feMerge>
</filter>
<filter id="filter12_g_12_2118" x="28.8501" y="98.0252" width="67.404" height="34.4101" filterUnits="userSpaceOnUse" color-interpolation-filters="sRGB">
<feFlood flood-opacity="0" result="BackgroundImageFix"/>
<feBlend mode="normal" in="SourceGraphic" in2="BackgroundImageFix" result="shape"/>
<feTurbulence type="fractalNoise" baseFrequency="0.077888153493404388 0.077888153493404388" numOctaves="3" seed="6019" />
<feDisplacementMap in="shape" scale="3.5634562969207764" xChannelSelector="R" yChannelSelector="G" result="displacedImage" width="100%" height="100%" />
<feMerge result="effect1_texture_12_2118">
<feMergeNode in="displacedImage"/>
</feMerge>
</filter>
<filter id="filter13_g_12_2118" x="11.7244" y="24.2195" width="102.761" height="84.729" filterUnits="userSpaceOnUse" color-interpolation-filters="sRGB">
<feFlood flood-opacity="0" result="BackgroundImageFix"/>
<feBlend mode="normal" in="SourceGraphic" in2="BackgroundImageFix" result="shape"/>
<feTurbulence type="fractalNoise" baseFrequency="0.12048192322254181 0.12048192322254181" numOctaves="3" seed="61" />
<feDisplacementMap in="shape" scale="4" xChannelSelector="R" yChannelSelector="G" result="displacedImage" width="100%" height="100%" />
<feMerge result="effect1_texture_12_2118">
<feMergeNode in="displacedImage"/>
</feMerge>
</filter>
<filter id="filter14_g_12_2118" x="12.6797" y="28.9331" width="26.6936" height="28.8618" filterUnits="userSpaceOnUse" color-interpolation-filters="sRGB">
<feFlood flood-opacity="0" result="BackgroundImageFix"/>
<feBlend mode="normal" in="SourceGraphic" in2="BackgroundImageFix" result="shape"/>
<feTurbulence type="fractalNoise" baseFrequency="0.077888153493404388 0.077888153493404388" numOctaves="3" seed="6019" />
<feDisplacementMap in="shape" scale="3.5634565353393555" xChannelSelector="R" yChannelSelector="G" result="displacedImage" width="100%" height="100%" />
<feMerge result="effect1_texture_12_2118">
<feMergeNode in="displacedImage"/>
</feMerge>
</filter>
<filter id="filter15_g_12_2118" x="88.8911" y="34.1275" width="25.9707" height="29.5046" filterUnits="userSpaceOnUse" color-interpolation-filters="sRGB">
<feFlood flood-opacity="0" result="BackgroundImageFix"/>
<feBlend mode="normal" in="SourceGraphic" in2="BackgroundImageFix" result="shape"/>
<feTurbulence type="fractalNoise" baseFrequency="0.077888153493404388 0.077888153493404388" numOctaves="3" seed="6019" />
<feDisplacementMap in="shape" scale="3.5634562969207764" xChannelSelector="R" yChannelSelector="G" result="displacedImage" width="100%" height="100%" />
<feMerge result="effect1_texture_12_2118">
<feMergeNode in="displacedImage"/>
</feMerge>
</filter>
<filter id="filter16_g_12_2118" x="29.3552" y="62.2136" width="21.3808" height="21.3808" filterUnits="userSpaceOnUse" color-interpolation-filters="sRGB">
<feFlood flood-opacity="0" result="BackgroundImageFix"/>
<feBlend mode="normal" in="SourceGraphic" in2="BackgroundImageFix" result="shape"/>
<feTurbulence type="fractalNoise" baseFrequency="0.077888153493404388 0.077888153493404388" numOctaves="3" seed="6019" />
<feDisplacementMap in="shape" scale="3.5634562969207764" xChannelSelector="R" yChannelSelector="G" result="displacedImage" width="100%" height="100%" />
<feMerge result="effect1_texture_12_2118">
<feMergeNode in="displacedImage"/>
</feMerge>
</filter>
<filter id="filter17_g_12_2118" x="76.4956" y="63.6865" width="21.3808" height="21.3808" filterUnits="userSpaceOnUse" color-interpolation-filters="sRGB">
<feFlood flood-opacity="0" result="BackgroundImageFix"/>
<feBlend mode="normal" in="SourceGraphic" in2="BackgroundImageFix" result="shape"/>
<feTurbulence type="fractalNoise" baseFrequency="0.077888153493404388 0.077888153493404388" numOctaves="3" seed="6019" />
<feDisplacementMap in="shape" scale="3.5634562969207764" xChannelSelector="R" yChannelSelector="G" result="displacedImage" width="100%" height="100%" />
<feMerge result="effect1_texture_12_2118">
<feMergeNode in="displacedImage"/>
</feMerge>
</filter>
<filter id="filter18_g_12_2118" x="24.4773" y="117.855" width="32.9079" height="28.7251" filterUnits="userSpaceOnUse" color-interpolation-filters="sRGB">
<feFlood flood-opacity="0" result="BackgroundImageFix"/>
<feBlend mode="normal" in="SourceGraphic" in2="BackgroundImageFix" result="shape"/>
<feTurbulence type="fractalNoise" baseFrequency="0.077888153493404388 0.077888153493404388" numOctaves="3" seed="6019" />
<feDisplacementMap in="shape" scale="3.5634562969207764" xChannelSelector="R" yChannelSelector="G" result="displacedImage" width="100%" height="100%" />
<feMerge result="effect1_texture_12_2118">
<feMergeNode in="displacedImage"/>
</feMerge>
</filter>
<filter id="filter19_g_12_2118" x="70.1089" y="117.103" width="32.9079" height="28.7251" filterUnits="userSpaceOnUse" color-interpolation-filters="sRGB">
<feFlood flood-opacity="0" result="BackgroundImageFix"/>
<feBlend mode="normal" in="SourceGraphic" in2="BackgroundImageFix" result="shape"/>
<feTurbulence type="fractalNoise" baseFrequency="0.077888153493404388 0.077888153493404388" numOctaves="3" seed="6019" />
<feDisplacementMap in="shape" scale="3.5634562969207764" xChannelSelector="R" yChannelSelector="G" result="displacedImage" width="100%" height="100%" />
<feMerge result="effect1_texture_12_2118">
<feMergeNode in="displacedImage"/>
</feMerge>
</filter>
<linearGradient id="paint0_linear_12_2118" x1="64.5659" y1="-13.1303" x2="62.598" y2="49.8478" gradientUnits="userSpaceOnUse">
<stop stop-color="#FCC477"/>
<stop offset="1" stop-color="#AA7C3B"/>
</linearGradient>
<linearGradient id="paint1_linear_12_2118" x1="64.86" y1="12.8611" x2="62.8877" y2="75.9768" gradientUnits="userSpaceOnUse">
<stop stop-color="#BD8E4D"/>
<stop offset="1" stop-color="#AA7C3B"/>
</linearGradient>
<radialGradient id="paint2_radial_12_2118" cx="0" cy="0" r="1" gradientUnits="userSpaceOnUse" gradientTransform="translate(65.9508 67.6526) rotate(103.924) scale(40.7032 49.2508)">
<stop stop-color="#FFF6E0"/>
<stop offset="1" stop-color="#FFECBD"/>
</radialGradient>
<linearGradient id="paint3_linear_12_2118" x1="49.0893" y1="122.732" x2="27.4424" y2="144.338" gradientUnits="userSpaceOnUse">
<stop offset="0.000920717" stop-color="#FFF3D3"/>
<stop offset="1" stop-color="#FFE093"/>
</linearGradient>
<linearGradient id="paint4_linear_12_2118" x1="79.0104" y1="121.57" x2="99.2661" y2="144.485" gradientUnits="userSpaceOnUse">
<stop offset="0.000920717" stop-color="#FFF3D3"/>
<stop offset="1" stop-color="#FFE093"/>
</linearGradient>
</defs>
</svg>
