<svg width="167" height="189" viewBox="0 0 167 189" fill="none" xmlns="http://www.w3.org/2000/svg">
<path d="M163.734 147.895C166.825 150.279 167.417 154.737 164.809 157.641C155.559 167.942 144.138 176.106 131.336 181.525C116.36 187.864 100.001 190.231 83.8417 188.397C67.6828 186.563 52.2707 180.59 39.0961 171.055C25.9216 161.52 15.4307 148.747 8.63799 133.971C1.84533 119.195 -1.01911 102.916 0.321754 86.7085C1.66262 70.5011 7.16339 54.9141 16.292 41.4551C25.4206 27.9961 37.8681 17.1207 52.4304 9.88088C64.8785 3.69213 78.5117 0.338973 92.3523 0.024382C96.2545 -0.0643142 99.2529 3.28795 99.0498 7.18591C98.8467 11.0839 95.5176 14.0466 91.6169 14.1866C80.2099 14.5961 68.9922 17.4323 58.723 22.5378C46.3388 28.6948 35.7532 37.9435 27.99 49.3893C20.2268 60.8352 15.5488 74.0908 14.4085 87.8739C13.2682 101.657 15.7042 115.501 21.4809 128.067C27.2575 140.633 36.1793 151.496 47.3832 159.604C58.5871 167.713 71.694 172.792 85.4359 174.352C99.1779 175.912 113.09 173.899 125.826 168.508C136.387 164.038 145.844 157.37 153.581 148.979C156.227 146.109 160.644 145.512 163.734 147.895Z" fill="url(#paint0_linear_203_603)"/>
<defs>
<linearGradient id="paint0_linear_203_603" x1="36.5" y1="-13.5" x2="138" y2="185.5" gradientUnits="userSpaceOnUse">
<stop stop-color="#FFDF87"/>
<stop offset="1" stop-color="#FF7C2B"/>
</linearGradient>
</defs>
</svg>
