<svg width="121" height="121" viewBox="0 0 121 121" fill="none" xmlns="http://www.w3.org/2000/svg">
<g filter="url(#filter0_d_221_657)">
<circle cx="60.5" cy="59.5" r="43.5" fill="white"/>
</g>
<path d="M67.772 34C68.7301 34 69.6488 34.3806 70.3263 35.058C71.0037 35.7354 71.3843 36.6542 71.3843 37.6122V62.4965C71.3843 63.4545 71.0037 64.3733 70.3263 65.0507C69.6488 65.7282 68.7301 66.1087 67.772 66.1087H50.9166C49.9585 66.1087 49.0397 65.7282 48.3623 65.0507C47.6849 64.3733 47.3043 63.4545 47.3043 62.4965V37.6122C47.3043 36.6542 47.6849 35.7354 48.3623 35.058C49.0397 34.3806 49.9585 34 50.9166 34H67.772ZM72.9913 54.8739H74.1954C74.4863 54.8739 74.7675 54.9793 74.9868 55.1705C75.206 55.3618 75.3486 55.6259 75.3882 55.9142L75.3995 56.078V58.4829C75.3994 58.7739 75.2941 59.055 75.1028 59.2743C74.9116 59.4936 74.6474 59.6362 74.3591 59.6757L74.1954 59.687H72.9913V54.8739ZM72.9913 48.4521H74.1954C74.4863 48.4522 74.7675 48.5575 74.9868 48.7488C75.206 48.94 75.3486 49.2042 75.3882 49.4925L75.3995 49.6562V52.0612C75.3994 52.3521 75.2941 52.6332 75.1028 52.8525C74.9116 53.0718 74.6474 53.2144 74.3591 53.254L74.1954 53.2652H72.9913V48.4521ZM72.9913 42.0304H74.1954C74.4863 42.0304 74.7675 42.1358 74.9868 42.327C75.206 42.5183 75.3486 42.7825 75.3882 43.0707L75.3995 43.2345V45.6394C75.3994 45.9304 75.2941 46.2115 75.1028 46.4308C74.9116 46.6501 74.6474 46.7927 74.3591 46.8323L74.1954 46.8435H72.9913V42.0304ZM64.5692 39.6142H54.1274C53.8362 39.6143 53.5549 39.7199 53.3356 39.9114C53.1163 40.103 52.9738 40.3676 52.9346 40.6561L52.9233 40.8183V43.2329C52.9233 43.8429 53.3777 44.3454 53.9653 44.4257L54.1274 44.4369H64.5676C64.8585 44.4369 65.1397 44.3316 65.3589 44.1403C65.5782 43.9491 65.7208 43.6849 65.7604 43.3966L65.7717 43.2329V40.8183C65.7717 40.4989 65.6448 40.1927 65.419 39.9669C65.1932 39.7411 64.8885 39.6142 64.5692 39.6142Z" fill="#FF890A"/>
<path d="M53.8296 73.6152V76.7637H55.3911V78.0967H53.8296V81.9688H52.2046V73.6152H53.8296ZM50.3257 74.542V75.8369H46.7329V78.7568C48.8213 78.7441 49.9702 78.6807 51.2651 78.4014L51.4302 79.6963C49.9829 80.001 48.6499 80.0645 46.0854 80.0645H45.1079V74.542H50.3257ZM54.2485 83.6699V84.9648H46.3393V81.0801H47.9516V83.6699H54.2485ZM58.9116 74.4277C60.4731 74.4277 61.6348 75.7163 61.8696 77.792H63.8755V73.6152H65.4751V85.1934H63.8755V79.0869H61.8823C61.7109 81.3086 60.5239 82.667 58.9116 82.667C57.1597 82.667 55.9028 81.0801 55.9155 78.541C55.9028 76.0273 57.1597 74.4277 58.9116 74.4277ZM58.9116 75.8877C58.0483 75.8877 57.4517 76.8271 57.4644 78.541C57.4517 80.2676 58.0483 81.1943 58.9116 81.1943C59.7876 81.1943 60.3589 80.2676 60.3589 78.541C60.3589 76.8271 59.7876 75.8877 58.9116 75.8877ZM73.3501 74.3896V75.6846H71.0523C71.065 77.0303 71.8711 78.3315 73.7183 78.8711L72.9439 80.1406C71.668 79.7534 70.7857 78.979 70.2778 77.9824C69.7637 79.1504 68.8242 80.0771 67.4341 80.5342L66.6089 79.252C68.5259 78.6489 69.3892 77.1509 69.4146 75.6846H67.0532V74.3896H73.3501ZM75.9526 73.6152V76.2939H77.5142V77.6143H75.9526V80.4707H74.3276V73.6152H75.9526ZM72.1694 80.6992C74.5689 80.6865 76.0669 81.5117 76.0669 82.9209C76.0669 84.3301 74.5689 85.168 72.1694 85.168C69.7192 85.168 68.2085 84.3301 68.2085 82.9209C68.2085 81.5117 69.7192 80.6865 72.1694 80.6992ZM72.1694 81.9561C70.646 81.9561 69.8208 82.2734 69.8335 82.9209C69.8208 83.5811 70.646 83.9111 72.1694 83.9111C73.6675 83.9111 74.4673 83.5811 74.4673 82.9209C74.4673 82.2734 73.6675 81.9561 72.1694 81.9561Z" fill="#FF890A"/>
<defs>
<filter id="filter0_d_221_657" x="0.700001" y="0.700001" width="119.6" height="119.6" filterUnits="userSpaceOnUse" color-interpolation-filters="sRGB">
<feFlood flood-opacity="0" result="BackgroundImageFix"/>
<feColorMatrix in="SourceAlpha" type="matrix" values="0 0 0 0 0 0 0 0 0 0 0 0 0 0 0 0 0 0 127 0" result="hardAlpha"/>
<feOffset dy="1"/>
<feGaussianBlur stdDeviation="8.15"/>
<feComposite in2="hardAlpha" operator="out"/>
<feColorMatrix type="matrix" values="0 0 0 0 0 0 0 0 0 0 0 0 0 0 0 0 0 0 0.25 0"/>
<feBlend mode="normal" in2="BackgroundImageFix" result="effect1_dropShadow_221_657"/>
<feBlend mode="normal" in="SourceGraphic" in2="effect1_dropShadow_221_657" result="shape"/>
</filter>
</defs>
</svg>
